<?xml version="1.0" standalone="no"?>
<!DOCTYPE svg PUBLIC "-//W3C//DTD SVG 20010904//EN"
 "http://www.w3.org/TR/2001/REC-SVG-20010904/DTD/svg10.dtd">
<svg version="1.0" xmlns="http://www.w3.org/2000/svg"
 width="129.000000pt" height="153.000000pt" viewBox="0 0 129.000000 153.000000"
 preserveAspectRatio="xMidYMid meet">

<g transform="translate(0.000000,153.000000) scale(0.100000,-0.100000)"
fill="#000000" stroke="none">
<path d="M641 1453 c-15 -30 -621 -1382 -621 -1387 0 -11 63 -37 70 -29 12 13
633 1403 629 1407 -10 9 -49 26 -58 26 -6 0 -14 -8 -20 -17z"/>
<path d="M911 1305 c44 -53 67 -123 76 -225 3 -36 8 -69 12 -75 8 -10 6 -57
-4 -110 -13 -67 -39 -156 -46 -161 -5 -2 -6 -11 -2 -19 3 -8 0 -15 -6 -15 -6
0 -11 -6 -11 -12 0 -39 -193 -278 -225 -278 -3 0 -26 -14 -51 -31 -25 -17 -70
-42 -102 -55 -31 -14 -66 -30 -77 -35 -11 -5 -58 -24 -104 -42 -47 -18 -86
-38 -89 -45 -6 -19 19 -14 144 28 204 69 340 146 413 235 23 28 50 59 61 70
11 12 20 26 20 32 0 6 7 16 15 23 8 7 12 17 9 22 -4 6 -1 14 6 18 15 9 58 128
66 180 10 72 11 167 2 225 -5 33 -10 70 -12 82 -1 13 -6 26 -9 30 -4 3 -7 13
-7 21 0 25 -50 119 -73 139 -22 18 -22 18 -6 -2z"/>
<path d="M1185 768 c-7 -31 -25 -67 -67 -135 -11 -18 -17 -33 -14 -33 14 0
-112 -162 -166 -213 -58 -54 -196 -147 -219 -147 -5 0 -36 -9 -67 -19 -32 -11
-106 -26 -165 -33 -147 -17 -145 -39 3 -31 126 7 290 53 338 96 12 11 22 17
22 13 0 -10 85 59 123 99 32 34 124 173 149 225 54 113 89 210 75 210 -3 0 -9
-14 -12 -32z"/>
<path d="M1090 275 c-25 -19 -53 -41 -62 -50 -10 -8 -20 -15 -24 -15 -3 0 -25
-9 -49 -20 -70 -32 -179 -51 -320 -56 -140 -6 -164 -9 -149 -24 12 -11 223
-16 294 -7 123 18 203 56 300 146 73 68 76 75 10 26z"/>
</g>
</svg>
