<?xml version="1.0" standalone="no"?>
<!DOCTYPE svg PUBLIC "-//W3C//DTD SVG 20010904//EN"
 "http://www.w3.org/TR/2001/REC-SVG-20010904/DTD/svg10.dtd">
<svg version="1.0" xmlns="http://www.w3.org/2000/svg"
 width="513.000000pt" height="161.000000pt" viewBox="0 0 513.000000 161.000000"
 preserveAspectRatio="xMidYMid meet">

<g transform="translate(0.000000,161.000000) scale(0.100000,-0.100000)"
fill="#000000" stroke="none">
<path d="M681 1523 c-15 -30 -621 -1382 -621 -1387 0 -11 63 -37 70 -29 12 13
633 1403 629 1407 -10 9 -49 26 -58 26 -6 0 -14 -8 -20 -17z"/>
<path d="M951 1375 c44 -53 67 -123 76 -225 3 -36 8 -69 12 -75 8 -10 6 -57
-4 -110 -13 -67 -39 -156 -46 -161 -5 -2 -6 -11 -2 -19 3 -8 0 -15 -6 -15 -6
0 -11 -6 -11 -12 0 -39 -193 -278 -225 -278 -3 0 -26 -14 -51 -31 -25 -17 -70
-42 -102 -55 -31 -14 -66 -30 -77 -35 -11 -5 -58 -24 -104 -42 -47 -18 -86
-38 -89 -45 -6 -19 19 -14 144 28 204 69 340 146 413 235 23 28 50 59 61 70
11 12 20 26 20 32 0 6 7 16 15 23 8 7 12 17 9 22 -4 6 -1 14 6 18 15 9 58 128
66 180 10 72 11 167 2 225 -5 33 -10 70 -12 82 -1 13 -6 26 -9 30 -4 3 -7 13
-7 21 0 25 -50 119 -73 139 -22 18 -22 18 -6 -2z"/>
<path d="M1643 1106 c-142 -46 -244 -169 -274 -331 -15 -80 -6 -246 17 -315
75 -225 306 -334 529 -250 102 39 222 183 213 257 -2 24 -8 29 -36 31 -41 4
-57 -8 -87 -68 -29 -57 -89 -113 -141 -131 -22 -7 -69 -13 -105 -13 -157 0
-265 110 -290 293 -25 184 41 348 165 414 33 17 58 22 126 22 76 0 91 -3 140
-30 40 -22 66 -46 96 -90 35 -51 45 -60 69 -58 16 1 35 9 44 17 13 14 12 21
-10 67 -31 68 -95 130 -166 166 -49 23 -72 28 -153 30 -60 2 -110 -2 -137 -11z"/>
<path d="M2278 1093 c-23 -25 -23 -38 2 -63 18 -18 33 -20 145 -20 l125 0 0
-390 c0 -377 1 -391 20 -410 25 -25 52 -26 73 -2 15 17 17 60 17 409 l0 390
377 6 c207 4 733 7 1169 7 707 0 794 2 808 16 19 19 20 25 3 49 -13 17 -69 18
-1368 23 -1335 5 -1354 4 -1371 -15z"/>
<path d="M3428 959 c-17 -9 -18 -34 -18 -287 0 -257 2 -280 21 -322 26 -58 72
-105 134 -138 44 -23 62 -26 150 -27 124 0 183 23 249 96 66 73 71 103 71 401
0 231 -2 259 -17 275 -14 13 -23 15 -45 7 l-28 -9 -5 -270 c-6 -307 -10 -324
-88 -379 -34 -24 -53 -30 -114 -33 -65 -4 -79 -2 -128 24 -42 21 -61 39 -80
73 -25 44 -25 49 -28 310 -2 232 -5 267 -19 278 -20 14 -32 15 -55 1z"/>
<path d="M4247 952 c-15 -17 -17 -57 -17 -369 0 -329 1 -352 19 -374 16 -21
22 -22 45 -11 l26 12 0 302 c0 194 3 299 10 292 5 -5 63 -140 128 -299 98
-241 123 -293 145 -305 24 -13 30 -13 54 0 22 12 47 65 145 305 66 160 124
294 129 300 5 5 9 -107 9 -293 0 -291 1 -302 20 -312 23 -12 54 0 64 26 3 8 6
170 6 358 0 395 2 386 -79 386 -33 0 -53 -5 -63 -17 -8 -10 -69 -154 -134
-320 -66 -167 -122 -303 -125 -303 -3 0 -61 138 -129 307 -68 170 -130 314
-138 321 -24 19 -96 15 -115 -6z"/>
<path d="M3197 948 c-20 -15 -277 -630 -277 -662 0 -12 5 -27 12 -34 16 -16
53 -15 66 1 17 21 272 637 272 657 0 21 -25 50 -44 50 -7 0 -20 -6 -29 -12z"/>
<path d="M1225 838 c-7 -31 -25 -67 -67 -135 -11 -18 -17 -33 -14 -33 14 0
-112 -162 -166 -213 -58 -54 -196 -147 -219 -147 -5 0 -36 -9 -67 -19 -32 -11
-106 -26 -165 -33 -147 -17 -145 -39 3 -31 126 7 290 53 338 96 12 11 22 17
22 13 0 -10 85 59 123 99 32 34 124 173 149 225 54 113 89 210 75 210 -3 0 -9
-14 -12 -32z"/>
<path d="M1130 345 c-25 -19 -53 -41 -62 -50 -10 -8 -20 -15 -24 -15 -3 0 -25
-9 -49 -20 -70 -32 -179 -51 -320 -56 -140 -6 -164 -9 -149 -24 12 -11 223
-16 294 -7 123 18 203 56 300 146 73 68 76 75 10 26z"/>
</g>
</svg>
